# xmcd CD database file
#
# Track frame offsets:
#	150
#	19032
#	34867
#	56365
#
# Disc length: 1000 seconds
#
# Revision: 0
# Processed by: cddbd v1.5.1PL0 Copyright (c) Steve Scherf et al.
# Submitted via: CDex 1.60beta1
#
DISCID=2703e604
DTITLE=AQUAMARINE - 熱情
DYEAR=1900
DGENRE=JPop
TTITLE0=熱情
TTITLE1=Summer sky Parade
TTITLE2=回想
TTITLE3=熱情(Instrumental)
EXTD=
EXTT0=
EXTT1=
EXTT2=
EXTT3=
PLAYORDER=
